<svg width="116" height="116" viewBox="0 0 116 116" fill="none" xmlns="http://www.w3.org/2000/svg">
<path d="M114.188 58C114.188 89.0316 89.0316 114.188 58 114.188C26.9684 114.188 1.8125 89.0316 1.8125 58C1.8125 26.9684 26.9684 1.8125 58 1.8125C89.0316 1.8125 114.188 26.9684 114.188 58ZM51.5008 87.7508L93.1883 46.0633C94.6039 44.6478 94.6039 42.3525 93.1883 40.9369L88.0619 35.8105C86.6463 34.3947 84.351 34.3947 82.9352 35.8105L48.9375 69.808L33.0648 53.9352C31.6492 52.5197 29.3539 52.5197 27.9381 53.9352L22.8117 59.0617C21.3961 60.4772 21.3961 62.7725 22.8117 64.1881L46.3742 87.7506C47.79 89.1664 50.085 89.1664 51.5008 87.7508Z" fill="#95FFB7"/>
</svg>
