<svg width="109" height="109" viewBox="0 0 109 109" fill="none" xmlns="http://www.w3.org/2000/svg">
<g clip-path="url(#clip0_6_157)">
<path d="M32.7 76.3H65.4C74.4266 76.3 81.75 68.9765 81.75 59.95H87.2C99.2241 59.95 109 50.174 109 38.15C109 26.1259 99.2241 16.35 87.2 16.35H20.4375C18.1723 16.35 16.35 18.1723 16.35 20.4375V59.95C16.35 68.9765 23.6734 76.3 32.7 76.3ZM87.2 27.25C93.212 27.25 98.1 32.1379 98.1 38.15C98.1 44.162 93.212 49.05 87.2 49.05H81.75V27.25H87.2ZM95.3239 92.65H8.2261C0.119221 92.65 -2.16297 81.75 2.09485 81.75H101.438C105.696 81.75 103.448 92.65 95.3239 92.65Z" fill="white"/>
</g>
<defs>
<clipPath id="clip0_6_157">
<rect width="109" height="109" fill="white"/>
</clipPath>
</defs>
</svg>
